<svg width="162" height="95" viewBox="0 0 162 95" fill="none" xmlns="http://www.w3.org/2000/svg">
<path d="M114.851 91.5483H69.9207C67.718 91.5483 65.918 89.7482 65.918 87.5455V85.556C65.918 83.3533 67.718 81.5532 69.9207 81.5532H114.851C117.054 81.5532 118.854 83.3533 118.854 85.556V87.5455C118.866 89.7482 117.054 91.5483 114.851 91.5483Z" fill="#FBC343"/>
<path d="M116.757 81.5409H71.8272C69.6245 81.5409 67.8245 79.7409 67.8245 77.5382V75.5487C67.8245 73.346 69.6245 71.5459 71.8272 71.5459H116.757C118.96 71.5459 120.76 73.346 120.76 75.5487V77.5382C120.772 79.7409 118.96 81.5409 116.757 81.5409Z" fill="#FBC343"/>
<path d="M113.643 71.5463H68.713C66.5103 71.5463 64.7102 69.7462 64.7102 67.5435V65.554C64.7102 63.3513 66.5103 61.5513 68.713 61.5513H113.643C115.846 61.5513 117.646 63.3513 117.646 65.554V67.5435C117.658 69.7344 115.846 71.5463 113.643 71.5463Z" fill="#FBC343"/>
<path d="M118.131 56.1276V56.9447C118.131 59.4672 116.059 61.5396 113.536 61.5396H69.7667C67.564 61.5396 65.7048 59.9645 65.2666 57.8684C65.2074 57.5724 65.1719 57.2645 65.1719 56.9447V56.1276C65.1719 53.6051 67.2443 51.5327 69.7667 51.5327H113.536C116.059 51.5446 118.131 53.6051 118.131 56.1276Z" fill="#FBC343"/>
<path d="M115.052 46.1325V46.9496C115.052 49.472 112.992 51.5445 110.457 51.5445H66.6996C64.1772 51.5445 62.1047 49.4839 62.1047 46.9496V46.1325C62.1047 43.61 64.1653 41.5376 66.6996 41.5376H110.457C112.992 41.5376 115.052 43.5982 115.052 46.1325Z" fill="#FBC343"/>
<path d="M118.889 36.1256V36.9428C118.889 39.4652 116.828 41.5376 114.294 41.5376H70.5363C68.0138 41.5376 65.9414 39.477 65.9414 36.9428V36.1256C65.9414 33.6032 68.002 31.5308 70.5363 31.5308H114.294C116.828 31.5426 118.889 33.6032 118.889 36.1256Z" fill="#FBC343"/>
<path d="M118.889 26.1188V26.9359C118.889 29.4584 116.828 31.5308 114.294 31.5308H70.5363C68.0138 31.5308 65.9414 29.4702 65.9414 26.9359V26.1188C65.9414 23.5963 68.002 21.5239 70.5363 21.5239H114.294C116.828 21.5358 118.889 23.5963 118.889 26.1188Z" fill="#FBC343"/>
<path d="M104.099 31.2617L104.092 31.8301L115.234 31.9739L115.242 31.4055L104.099 31.2617Z" fill="#E49B31"/>
<path d="M110.457 41.2529H78.9209V41.8214H110.457V41.2529Z" fill="#E49B31"/>
<path d="M110.469 51.2485H97.3362V51.817H110.469V51.2485Z" fill="#E49B31"/>
<path d="M103.909 61.2554H80.0698V61.8238H103.909V61.2554Z" fill="#E49B31"/>
<path d="M93.6176 31.2461H70.5366V31.8145H93.6176V31.2461Z" fill="#E49B31"/>
<path d="M113.063 71.2622H100.853V71.8306H113.063V71.2622Z" fill="#E49B31"/>
<path d="M114.271 81.2568H84.5698V81.8253H114.271V81.2568Z" fill="#E49B31"/>
<path opacity="0.15" d="M90.8582 21.5354V57.868H65.2785C65.2193 57.572 65.1838 57.2641 65.1838 56.9443V56.1272C65.1838 53.6048 67.2562 51.5323 69.7786 51.5323H66.6996C64.1772 51.5323 62.1047 49.4718 62.1047 46.9375V46.1203C62.1047 43.5979 64.1653 41.5255 66.6996 41.5255H70.5366C68.0141 41.5255 65.9417 39.4649 65.9417 36.9306V36.1135C65.9417 33.591 68.0023 31.5186 70.5366 31.5186C68.0141 31.5186 65.9417 29.458 65.9417 26.9237V26.1066C65.9417 23.5842 68.0023 21.5117 70.5366 21.5117H90.8582V21.5354Z" fill="#102048"/>
<path d="M151.346 85.9299V86.7644C151.346 89.3405 149.242 91.457 146.654 91.457H101.965C99.3892 91.457 97.2727 89.3526 97.2727 86.7644V85.9299C97.2727 83.3538 99.3771 81.2373 101.965 81.2373H146.654C149.242 81.2373 151.346 83.3538 151.346 85.9299Z" fill="#FBC343"/>
<path d="M159.062 75.7102V76.5447C159.062 79.1208 156.958 81.2373 154.37 81.2373H109.681C107.105 81.2373 104.989 79.1329 104.989 76.5447V75.7102C104.989 73.1341 107.093 71.0176 109.681 71.0176H154.37C154.938 71.0176 155.495 71.1264 156.003 71.3078C157.78 71.9851 159.062 73.7025 159.062 75.7102Z" fill="#FBC343"/>
<path d="M161.663 65.7929V66.6274C161.663 69.2035 159.546 71.3199 156.97 71.3199H112.27C111.701 71.3199 111.157 71.2111 110.649 71.0297C108.859 70.3645 107.589 68.6471 107.589 66.6395V65.805C107.589 63.2289 109.706 61.1124 112.282 61.1124H156.982C159.546 61.1003 161.663 63.2168 161.663 65.7929Z" fill="#FBC343"/>
<path d="M158.966 55.5735V56.408C158.966 58.984 156.849 61.1005 154.273 61.1005H109.585C107.009 61.1005 104.892 58.9961 104.892 56.408V55.5735C104.892 52.9974 107.009 50.8809 109.585 50.8809H154.285C156.849 50.893 158.966 52.9974 158.966 55.5735Z" fill="#FBC343"/>
<path d="M154.285 60.8105H139.288V61.3911H154.285V60.8105Z" fill="#E49B31"/>
<path d="M146.654 80.9478H136.652V81.5283H146.654V80.9478Z" fill="#E49B31"/>
<path opacity="0.3" d="M132.721 61.1005V61.2457C132.721 64.5111 132.322 67.8008 131.487 71.03C131.475 71.0904 131.463 71.163 131.439 71.2235C131.439 71.2477 131.427 71.2839 131.415 71.3202C130.459 74.9243 129.032 78.2503 127.206 81.2376C124.69 85.3617 121.461 88.8207 117.712 91.4572H101.965C99.3892 91.4572 97.2727 89.3528 97.2727 86.7647V85.9301C97.2727 83.3541 99.3771 81.2376 101.965 81.2376H109.681C107.105 81.2376 104.989 79.1332 104.989 76.545V75.7105C104.989 73.1344 107.093 71.0179 109.681 71.0179H110.649C108.859 70.3527 107.589 68.6353 107.589 66.6276V65.7931C107.589 63.2171 109.706 61.1005 112.282 61.1005H105.702C103.126 61.1005 101.01 58.9961 101.01 56.408V55.5735C101.01 52.9974 103.126 50.8809 105.702 50.8809H131.354C132.237 54.1826 132.721 57.6295 132.721 61.1005Z" fill="#B25834"/>
<path d="M95.2102 70.8501C93.2026 77.7559 89.5138 83.5249 84.9784 87.6007C80.4431 91.6644 75.0369 94.0228 69.5824 94.0832L32.3682 93.9623C19.899 93.9139 8.56664 86.6694 3.29353 75.3734L3.02745 74.817C0.29414 68.9755 -0.552462 62.6259 0.342516 56.5425C1.38263 49.3827 4.81741 42.5978 10.4171 37.4456L29.9615 19.4735L66.8733 18.8809L87.0466 39.0663C87.5303 39.55 88.002 40.058 88.4495 40.5659C95.7182 48.7901 98.3063 60.2071 95.2102 70.8501Z" fill="#FF9064"/>
<path d="M29.9615 19.5344L25.3293 1.17528C36.6496 4.73101 53.0858 -1.93296 69.6187 0.582657L66.8612 19.099L29.9615 19.5344Z" fill="#FF9064"/>
<path d="M45.4059 76.3169V70.5963C41.3664 70.4149 37.4478 69.3264 35.1499 68.0081L36.964 60.9571C39.4918 62.3359 43.0596 63.6058 46.9781 63.6058C50.4129 63.6058 52.7713 62.2754 52.7713 59.8687C52.7713 57.5707 50.8362 56.1315 46.3855 54.6197C39.9272 52.4549 35.5248 49.4313 35.5248 43.5897C35.5248 38.2803 39.262 34.1199 45.7203 32.8621V27.1294H51.6344V32.4388C55.6739 32.6202 58.3952 33.4547 60.3786 34.4222L58.6249 41.2313C57.0527 40.5662 54.2831 39.1753 49.9412 39.1753C46.0227 39.1753 44.7528 40.8685 44.7528 42.5496C44.7528 44.5331 46.8693 45.803 51.9852 47.7381C59.1571 50.2658 62.0597 53.5917 62.0597 59.01C62.0597 64.3798 58.2621 68.9515 51.3321 70.1609V76.3048H45.4059V76.3169Z" fill="white"/>
<path d="M68.1795 21.627H27.966C26.7323 21.627 25.7285 20.6232 25.7285 19.3896V18.7365C25.7285 17.5029 26.7323 16.499 27.966 16.499H68.1795C69.4131 16.499 70.417 17.5029 70.417 18.7365V19.3896C70.417 20.6232 69.4131 21.627 68.1795 21.627Z" fill="#B25834"/>
<path opacity="0.3" d="M95.2102 70.8501C93.2026 77.7559 89.5138 83.5249 84.9784 87.6007C80.4431 91.6643 75.0369 94.0227 69.5824 94.0832L32.3682 93.9623C19.899 93.9139 8.56664 86.6694 3.29353 75.3733L3.02745 74.817C0.29414 68.9754 -0.552462 62.6259 0.342516 56.5425C13.743 83.0653 39.5643 93.6236 63.1603 83.8393C83.5755 75.3733 86.3693 50.5074 88.4495 40.5659C95.7182 48.79 98.3063 60.2071 95.2102 70.8501Z" fill="#B25834"/>
</svg>
