<svg width="135" height="75" viewBox="0 0 135 75" fill="none" xmlns="http://www.w3.org/2000/svg">
<path d="M0 74.0475V68.2202L17.9231 44.512V44.4416H1.48733V37.2677H32.0879V42.8792L14.6904 66.7281V66.8032H32.8762V74.0475H0.00468933H0Z" fill="white"/>
<path d="M58.0107 74.6856L57.4852 70.9884H57.396C54.9469 72.7666 51.7141 74.8967 46.9941 74.8967C40.524 74.8967 36.2402 71.6265 36.2402 66.015C36.2402 59.6199 42.0957 55.1156 50.5787 54.4072L56.3498 53.9098V53.2248C56.3498 49.8138 54.6044 47.4678 49.3541 47.4678C46.1214 47.4678 44.0241 48.2467 41.5749 49.3165L37.554 43.2076C41.6641 41.0024 45.5959 39.5807 51.8924 39.5807C61.9425 39.5807 67.2772 43.9865 67.2772 51.1651V65.2314L68.6801 73.5455L58.0107 74.6809V74.6856ZM56.3498 59.0287L52.5915 59.3806C49.1805 59.7372 46.9988 62.4585 46.9988 64.8044C46.9988 66.8642 48.4861 68.4266 51.1089 68.4266C53.7317 68.4266 55.1298 67.643 56.3544 66.7938V59.024L56.3498 59.0287Z" fill="white"/>
<path d="M85.6555 51.2401V74.0475H74.5544V49.1804L73.1562 40.8663L83.821 39.7309L84.52 44.4932H84.6092C86.9692 41.9361 90.5539 39.5901 97.024 39.5901V47.8338C91.952 47.8338 88.6302 48.5423 85.6555 51.2448V51.2401Z" fill="white"/>
<path d="M118.588 74.831C110.372 74.831 106.347 70.3549 106.347 63.6737V47.5429H99.9658V41.5748L106.347 40.3643V34.5369L117.363 33.4719V40.4347H128.727V47.5382H117.363V61.2527C117.363 65.7287 118.762 66.8689 122.346 66.8689C124.533 66.8689 125.668 66.3715 127.413 65.7334L130.388 72.41C126.804 73.9724 124.092 74.8263 118.588 74.8263V74.831Z" fill="white"/>
<path d="M1.8252 1.13999C1.8252 0.0983892 2.54775 -0.305126 3.43452 0.248519L23.5159 12.8275C24.398 13.3812 24.398 14.2867 23.5159 14.8404L3.43452 27.4194C2.55244 27.973 1.8252 27.5742 1.8252 26.5279V1.1353V1.13999Z" fill="#DE3D96"/>
<path d="M28.3062 1.13999C28.3062 0.0983892 29.0287 -0.305126 29.9155 0.248519L49.9968 12.8275C50.8789 13.3812 50.8789 14.2867 49.9968 14.8404L29.9155 27.4194C29.0334 27.973 28.3062 27.5742 28.3062 26.5279V1.1353V1.13999Z" fill="#00B7CE"/>
<path d="M54.7825 1.13999C54.7825 0.0983892 55.505 -0.305126 56.3918 0.248519L76.4731 12.8275C77.3552 13.3812 77.3552 14.2867 76.4731 14.8404L56.3918 27.4194C55.5097 27.973 54.7825 27.5742 54.7825 26.5279V1.1353V1.13999Z" fill="#F7941D"/>
<path d="M81.2634 1.13999C81.2634 0.0983892 81.986 -0.305126 82.8728 0.248519L102.954 12.8275C103.836 13.3812 103.836 14.2867 102.954 14.8404L82.8728 27.4194C81.9907 27.973 81.2634 27.5742 81.2634 26.5279V1.1353V1.13999Z" fill="#BFD730"/>
<path d="M107.745 1.13999C107.745 0.0983892 108.467 -0.305126 109.354 0.248519L129.436 12.8275C130.318 13.3812 130.318 14.2867 129.436 14.8404L109.354 27.4194C108.472 27.973 107.745 27.5742 107.745 26.5279V1.1353V1.13999Z" fill="#00A99D"/>
<path d="M132.691 44.3149H132.377C131.673 44.3149 130.453 43.6581 130.327 42.8933C130.327 42.8604 130.28 42.8464 130.247 42.8323C130.2 42.8135 130.153 42.7807 130.12 42.7337C130.041 42.6118 129.994 42.532 129.994 42.3725C129.994 42.2927 130.134 41.3403 130.228 41.1854C130.43 40.8429 130.59 40.5614 130.74 40.294C130.899 40.0265 131.087 39.806 131.368 39.5902C131.448 39.5292 131.57 39.4635 131.697 39.4025C131.828 39.3415 131.978 39.2805 132.091 39.2289C132.588 38.9943 133.137 38.9474 133.653 38.9474C133.7 38.9474 133.996 39.0271 134.155 39.0694C134.296 39.1163 134.592 39.304 134.686 39.5433C134.765 39.7169 135 40.7444 135 40.979V41.7297C135 42.6212 133.949 44.3102 132.687 44.3102L132.691 44.3149ZM133.738 39.5104C133.273 39.5104 132.551 39.5245 132.021 39.8717C131.894 39.9468 131.786 40.0735 131.659 40.2001C131.533 40.3221 131.411 40.4488 131.27 40.5614C131.237 40.5755 131.19 40.6412 131.162 40.7022L131.115 40.7632L131.096 40.796L131.082 40.8101L131.068 40.796C131.035 40.796 130.974 40.8898 130.974 40.8898C130.927 40.9837 130.866 41.1198 130.805 41.2652C130.679 41.5608 130.571 41.908 130.571 42.0347C130.571 42.0347 130.571 42.0487 130.585 42.0816L130.618 42.1613C130.651 42.2223 130.679 42.3021 130.679 42.349C130.819 43.2874 131.791 43.8504 132.541 43.8504C132.936 43.8504 133.466 43.5079 133.621 43.3766C134.31 42.8135 134.531 41.6875 134.531 40.9227C134.531 40.5942 134.357 39.5151 133.747 39.5151L133.738 39.5104ZM133.475 42.6868C133.395 42.6868 133.226 42.6258 133.067 42.5601C133.02 42.5461 132.771 42.4335 132.724 42.4335H132.616L132.476 42.3537C132.523 42.4945 132.555 42.7619 132.555 42.8886C132.555 43.0293 132.494 43.3109 132.241 43.3109C132.067 43.3109 131.838 42.9496 131.819 42.8886C131.805 42.8557 131.805 42.8088 131.805 42.776C131.805 42.715 131.819 42.6681 131.838 42.6211C131.852 42.5742 131.866 42.5273 131.866 42.4804V42.4429C131.852 42.2692 131.786 41.8986 131.786 41.725C131.786 41.3825 131.786 40.9274 132.082 40.6928C132.133 40.6599 132.161 40.613 132.208 40.552C132.255 40.491 132.316 40.4394 132.363 40.3925C132.551 40.2048 132.851 40.111 133.034 40.111C133.508 40.111 133.597 40.4723 133.597 40.7819C133.597 40.9555 133.508 41.1244 133.377 41.3168C133.25 41.4904 133.081 41.6922 132.926 41.8798H133.287C133.287 41.8798 133.301 41.8939 133.316 41.8939L133.33 41.908C133.33 41.908 133.344 41.9221 133.362 41.9221C133.583 41.9221 133.85 42.1238 133.85 42.2505C133.85 42.3772 133.663 42.6728 133.475 42.6728V42.6868ZM132.865 40.6975H132.837C132.677 40.7772 132.302 41.1714 132.302 41.3074C132.302 41.4951 132.363 41.603 132.476 41.603C132.509 41.603 132.555 41.5889 132.602 41.5561C132.757 41.4482 133.072 41.054 133.086 40.8851C133.039 40.7725 132.945 40.6975 132.865 40.6975Z" fill="white"/>
</svg>
