<svg width="27" height="27" viewBox="0 0 27 27" fill="none" xmlns="http://www.w3.org/2000/svg">
<path d="M25.5 3H9.5C9.10218 3 8.72064 2.84196 8.43934 2.56066C8.15804 2.27936 8 1.89782 8 1.5C8 1.10218 8.15804 0.720644 8.43934 0.43934C8.72064 0.158035 9.10218 0 9.5 0H25.5C25.8978 0 26.2794 0.158035 26.5607 0.43934C26.842 0.720644 27 1.10218 27 1.5C27 1.89782 26.842 2.27936 26.5607 2.56066C26.2794 2.84196 25.8978 3 25.5 3ZM27 13.5C27 13.1022 26.842 12.7206 26.5607 12.4393C26.2794 12.158 25.8978 12 25.5 12H1.5C1.10218 12 0.720644 12.158 0.43934 12.4393C0.158035 12.7206 0 13.1022 0 13.5C0 13.8978 0.158035 14.2794 0.43934 14.5607C0.720644 14.842 1.10218 15 1.5 15H25.5C25.8978 15 26.2794 14.842 26.5607 14.5607C26.842 14.2794 27 13.8978 27 13.5ZM27 25.5C27 25.1022 26.842 24.7206 26.5607 24.4393C26.2794 24.158 25.8978 24 25.5 24H9.5C9.10218 24 8.72064 24.158 8.43934 24.4393C8.15804 24.7206 8 25.1022 8 25.5C8 25.8978 8.15804 26.2794 8.43934 26.5607C8.72064 26.842 9.10218 27 9.5 27H25.5C25.8978 27 26.2794 26.842 26.5607 26.5607C26.842 26.2794 27 25.8978 27 25.5Z" fill="#0D1939"/>
</svg>
